<?xml version="1.0" encoding="UTF-8" standalone="no"?>
<!-- Created with Inkscape (http://www.inkscape.org/) by Marsupilami -->
<svg
   xmlns:svg="http://www.w3.org/2000/svg"
   xmlns="http://www.w3.org/2000/svg"
   version="1.0"
   width="1024"
   height="140"
   viewBox="0 0 270.99951 37.154583"
   id="svg2827">
  <defs
     id="defs2829" />
  <g
     transform="translate(-443.79674,-44.583756)"
     id="layer1">
    <path
       d="M 19.46875,0 C 15.714219,0.049062513 12.278125,1.2650001 9.71875,3.5625 C 8.40375,4.7425 5.8350001,7.0587496 2.1875,10.28125 C 9.805,4.45625 18.168751,6.47875 23.59375,10.125 L 31.0625,3.40625 C 27.2875,1.0675 23.223281,-0.049062513 19.46875,0 z M 269.78125,3.96875 L 264.6875,4.71875 L 264.6875,5.15625 C 265.07999,5.2662502 265.84625,5.44875 265.90625,6.59375 L 265.90625,26.09375 C 265.84624,27.239999 265.08,27.39 264.6875,27.5 L 264.6875,27.96875 L 271,27.96875 L 271,27.5 C 270.59906,27.388425 269.81152,27.240625 269.78125,26.03125 L 269.78125,25.96875 L 269.78125,3.96875 z M 216.59375,4.90625 C 215.34251,5.0662498 214.45875,6.1275 214.625,7.28125 C 214.79125,8.4337502 215.96625,9.25375 217.21875,9.09375 C 218.47,8.9337498 219.3225,7.8725 219.15625,6.71875 C 218.99,5.5662499 217.84625,4.7475 216.59375,4.90625 z M 239.5625,4.90625 C 238.31124,5.0662498 237.42625,6.1275 237.59375,7.28125 C 237.76001,8.4337502 238.90375,9.25375 240.15625,9.09375 C 241.4075,8.9337498 242.29125,7.8725 242.125,6.71875 C 241.95875,5.5662499 240.815,4.7475 239.5625,4.90625 z M 182.625,5.625 L 182.625,6.09375 C 183.0175,6.2037501 183.84375,6.365 183.84375,7.5 L 183.84375,26.09375 C 183.84375,27.25 183.0175,27.39 182.625,27.5 L 182.625,27.96875 L 189.34375,27.96875 L 189.34375,27.5 C 188.93625,27.38625 188.125,27.24375 188.125,25.96875 L 188.125,7.625 C 188.12499,6.35 188.93625,6.2075 189.34375,6.09375 L 189.34375,5.625 L 182.625,5.625 z M 227.78125,6.40625 C 227.1625,10.98 223.67125,12.29 223.0625,12.4375 L 223.0625,13.4375 L 225.34375,13.4375 L 225.34375,23.53125 C 225.34375,28.04875 227.89875,28.40625 229.71875,28.40625 C 231.59875,28.40625 232.72,27.57125 233.9375,26.78125 L 233.9375,25.78125 C 230.99625,27.1675 229.1875,25.95125 229.1875,23.53125 L 229.1875,13.4375 L 232.5,13.4375 L 233.375,11.59375 L 229.1875,11.59375 L 229.1875,6.40625 L 227.78125,6.40625 z M 197.96875,11.03125 L 192.90625,11.75 L 192.90625,12.21875 C 193.29875,12.3275 194.065,12.47875 194.125,13.625 L 194.125,26.09375 C 194.065,27.23875 193.29875,27.39 192.90625,27.5 L 192.90625,27.96875 L 199.21875,27.96875 L 199.21875,27.5 C 198.81781,27.388425 197.99902,27.240625 197.96875,26.03125 L 197.96875,25.96875 L 197.96875,19.4375 C 198.01624,16.68125 198.97375,13.9375 202.03125,13.9375 C 204.89125,13.9375 205.1875,15.82625 205.1875,18.96875 L 205.1875,27.96875 L 208.90625,27.96875 L 210.25,27.96875 L 210.25,27.5 C 209.8575,27.39 209.09125,27.23875 209.03125,26.09375 L 209.03125,17.40625 C 209.03126,13.21875 207.2825,11.3125 203.46875,11.3125 C 200.965,11.3125 199.1425,12.42875 197.96875,13.96875 L 197.96875,11.03125 z M 218.875,11.03125 L 213.78125,11.75 L 213.78125,12.21875 C 214.17249,12.3275 214.94,12.48 215,13.625 L 215,26.09375 C 214.94001,27.23875 214.1725,27.39 213.78125,27.5 L 213.78125,27.96875 L 220.09375,27.96875 L 220.09375,27.5 C 219.69282,27.388425 218.90527,27.240625 218.875,26.03125 L 218.875,25.96875 L 218.875,11.03125 z M 241.8125,11.03125 L 236.75,11.75 L 236.75,12.21875 C 237.14125,12.3275 237.91,12.47875 237.96875,13.625 L 237.96875,26.09375 C 237.90999,27.23875 237.14125,27.39 236.75,27.5 L 236.75,27.96875 L 243.0625,27.96875 L 243.0625,27.5 C 242.65375,27.38625 241.84375,27.24375 241.84375,25.96875 L 241.8125,26.03125 L 241.8125,11.03125 z M 253.21875,11.3125 C 251.30249,11.3125 248.94875,12.13 247.0625,13.59375 L 247.0625,16.03125 L 247.5,16.03125 C 248.6925,13.697499 251.3225,13.4375 252.71875,13.4375 C 255.8675,13.4375 256.40625,14.765 256.40625,16.9375 L 256.40625,17.875 C 251.91626,17.888749 246.1875,19.09875 246.1875,24.03125 C 246.18749,27.562499 249.265,28.4375 250.96875,28.4375 C 254.18249,28.437499 255.51125,26.6625 256.40625,25.125 L 256.40625,27.96875 L 261.65625,27.96875 L 261.65625,27.5 C 261.26374,27.39 260.4375,27.23 260.4375,26.09375 L 260.4375,17.21875 C 260.43749,11.461251 255.86625,11.3125 253.21875,11.3125 z M 255.59375,19.78125 L 256.40625,19.78125 C 256.27375,23.41375 254.68875,25.65625 252.21875,25.65625 C 250.465,25.656249 249.6875,24.5425 249.6875,23.40625 C 249.68751,20.57875 253.65375,19.78125 255.59375,19.78125 z M 8.09375,27.96875 L 0.40625,34.71875 C 7.04625,38.206251 15.0025,37.98375 19.875,33.6875 C 21.2275,32.494998 22.21625,31.0975 22.875,29.5625 C 18.36875,31.052499 12.89125,30.4875 8.09375,27.96875 z M 43.875,32.65625 L 43.84375,35 L 175,35 L 175,32.65625 L 43.875,32.65625 z "
       transform="translate(443.79674,44.583756)"
       style="fill:#007ac1;fill-opacity:1;fill-rule:nonzero;stroke:none"
       id="path2755" />
    <path
       d="M 139.71875,3.96875 L 134.625,4.71875 L 134.625,5.15625 C 135.0175,5.2662502 135.785,5.45 135.84375,6.59375 L 135.84375,26.09375 C 135.785,27.23875 135.0175,27.39 134.625,27.5 L 134.625,27.96875 L 140.9375,27.96875 L 140.9375,27.5 C 140.53779,27.388425 139.74902,27.240625 139.71875,26.03125 L 139.71875,25.96875 L 139.71875,19.25 L 140.6875,20.125 L 146.5625,27.96875 L 151.375,27.96875 L 151.375,27.5 C 150.37126,27.14875 149.9225,26.6475 149.53125,26.125 L 143.46875,17.9375 L 150.5625,12.21875 L 150.5625,11.59375 L 144.46875,11.59375 L 144.46875,12.0625 C 144.93375,12.15875 145.49625,12.59 144.6875,13.3125 L 139.71875,17.5625 L 139.71875,3.96875 z M 168.53125,3.96875 L 163.4375,4.71875 L 163.4375,5.15625 C 163.82999,5.2662502 164.5975,5.44875 164.65625,6.59375 L 164.65625,26.09375 C 164.59751,27.239999 163.83,27.39 163.4375,27.5 L 163.4375,27.96875 L 169.75,27.96875 L 169.75,27.5 C 169.35029,27.388425 168.56152,27.240625 168.53125,26.03125 L 168.53125,25.96875 L 168.53125,3.96875 z M 156.28125,4.90625 C 155.02875,5.0662498 154.14625,6.1275 154.3125,7.28125 C 154.47875,8.4337502 155.6225,9.25375 156.875,9.09375 C 158.12625,8.9337498 159.01,7.8725 158.84375,6.71875 C 158.67749,5.5662499 157.53375,4.7475 156.28125,4.90625 z M 43.6875,5.3125 L 43.6875,6 C 44.19375,6.2550002 44.84375,6.56125 44.84375,7.8125 L 44.84375,26.03125 C 44.818749,27.25375 44.0275,27.41875 43.625,27.53125 L 43.625,27.96875 L 44.9375,27.96875 L 49,27.96875 L 50.3125,27.96875 L 50.3125,27.53125 C 49.903751,27.417499 49.09375,27.245 49.09375,25.96875 L 49.09375,17.9375 C 50.703748,18.1725 51.685,19.40125 52.125,19.90625 L 58.96875,27.96875 L 64.09375,27.96875 L 64.09375,27.5 C 63.089999,27.30125 62.3325,26.47125 61.6875,25.71875 L 56.40625,19.125 C 56.037499,18.680001 55.20875,17.775 54.21875,17.4375 C 58.825,16.38375 60.3125,13.75625 60.3125,11.59375 C 60.312501,7.1650001 56.31625,5.65625 51.28125,5.65625 C 49.047498,5.65625 44.775,5.58125 43.6875,5.3125 z M 106.90625,6.40625 C 106.28625,10.98 102.7975,12.29 102.1875,12.4375 L 102.1875,13.4375 L 104.4375,13.4375 L 104.4375,23.53125 C 104.4375,28.04875 107.02375,28.40625 108.84375,28.40625 C 110.7225,28.40625 111.81375,27.57125 113.03125,26.78125 L 113.03125,25.78125 C 110.09,27.1675 108.28125,25.95125 108.28125,23.53125 L 108.28125,13.4375 L 111.59375,13.4375 L 112.5,11.59375 L 108.28125,11.59375 L 108.28125,6.40625 L 106.90625,6.40625 z M 49.09375,7.5 L 50.78125,7.5 C 53.6775,7.5 55.78125,8.515 55.78125,11.65625 C 55.78125,14.79625 52.2775,15.96875 49.9375,15.96875 L 49.09375,15.96875 L 49.09375,7.5 z M 8.53125,8.9375 C 6.8075,9.5225 5.2150001,10.42125 3.875,11.625 C -0.955,15.96 -1.1875001,23.01875 2.71875,28.9375 L 10.3125,22.09375 C 7.49,17.8175 6.8524999,12.94875 8.53125,8.9375 z M 29.125,9.5 L 21.5625,16.15625 C 25.65,20.99375 27.89375,28.44 21.34375,35.21875 C 24.9675,31.973751 27.61,29.70125 28.9375,28.53125 C 34.1025,23.9775 34.3675,16.23 29.125,9.5 z M 87.71875,11.03125 L 82.625,11.75 L 82.625,12.21875 C 83.0175,12.3275 83.84375,12.4675 83.84375,13.625 L 83.84375,26.09375 C 83.843747,27.25625 83.0175,27.39 82.625,27.5 L 82.625,27.96875 L 88.9375,27.96875 L 88.9375,27.5 C 88.530001,27.38625 87.71875,27.24375 87.71875,25.96875 L 87.71875,19.65625 C 87.71875,16.825 88.61125,13.9375 91.75,13.9375 C 94.609999,13.9375 94.90625,15.82625 94.90625,18.96875 L 94.90625,27.96875 L 100,27.96875 L 100,27.5 C 99.607498,27.39 98.75,27.2375 98.75,26.09375 L 98.75,17.40625 C 98.75,13.21875 97.00125,11.3125 93.1875,11.3125 C 90.678749,11.3125 88.8925,12.4225 87.71875,13.96875 L 87.71875,11.03125 z M 158.53125,11.03125 L 153.46875,11.75 L 153.46875,12.21875 C 153.86,12.3275 154.6875,12.4675 154.6875,13.625 L 154.6875,26.09375 C 154.6875,27.25625 153.86,27.39 153.46875,27.5 L 153.46875,27.96875 L 159.78125,27.96875 L 159.78125,27.5 C 159.37249,27.38625 158.53125,27.24375 158.53125,25.96875 L 158.53125,11.03125 z M 72.28125,11.3125 C 67.540002,11.3125 63.78125,15.01375 63.78125,20 C 63.78125,24.6625 67.215,28.40625 72.59375,28.40625 C 75.878753,28.40625 77.635,27.42625 78.75,26.75 L 78.75,25.1875 C 77.483749,25.921251 76.07,26.1875 73.875,26.1875 C 70.168752,26.187499 68.16875,23.61875 67.875,19.96875 L 80.03125,19.96875 C 80.324998,13.9825 76.58375,11.3125 72.28125,11.3125 z M 122.84375,11.3125 C 122.53329,11.322975 122.22078,11.334531 121.90625,11.375 C 116.87375,12.02375 113.3625,16.35125 114.03125,21.03125 C 114.70125,25.7125 119.31125,28.9925 124.34375,28.34375 C 129.375,27.69625 132.92,23.3675 132.25,18.6875 C 131.62305,14.298828 127.50069,11.155373 122.84375,11.3125 z M 72.15625,13.21875 C 74.441247,13.21875 75.94625,15.36 76.15625,18.09375 L 68.0625,18.09375 C 68.354998,15.695 69.715,13.21875 72.15625,13.21875 z M 123.28125,13.6875 C 124.09699,13.738242 124.83719,14.014687 125.5,14.53125 C 126.735,15.495 127.5925,17.25625 127.84375,19.34375 C 128.21375,22.422499 127.14375,25.69375 123.90625,26.09375 C 122.75875,26.234999 121.7275,25.97 120.84375,25.28125 C 119.6075,24.3175 118.75125,22.555 118.5,20.46875 C 118.13,17.389999 119.2,14.11875 122.4375,13.71875 C 122.72469,13.683437 123.00934,13.670586 123.28125,13.6875 z M 177.40625,32.65625 L 177.40625,35 L 270.75,35 L 270.75,32.65625 L 177.40625,32.65625 z "
       transform="translate(443.79674,44.583756)"
       style="fill:#e03d41;fill-opacity:1;fill-rule:nonzero;stroke:none"
       id="path2757" />
  </g>
</svg>
